<?xml version="1.0" encoding="UTF-8" standalone="no"?><!DOCTYPE svg PUBLIC "-//W3C//DTD SVG 1.1//EN" "http://www.w3.org/Graphics/SVG/1.1/DTD/svg11.dtd"><svg width="100%" height="100%" viewBox="0 0 833 642" version="1.1" xmlns="http://www.w3.org/2000/svg" xmlns:xlink="http://www.w3.org/1999/xlink" xml:space="preserve" xmlns:serif="http://www.serif.com/" style="fill-rule:evenodd;clip-rule:evenodd;stroke-linejoin:round;stroke-miterlimit:2;"><path d="M174.56,600.586c6.647,-0 13.021,-1.458 19.125,-4.374c6.103,-2.916 13.224,-7.969 21.362,-15.157l66.935,-59.001c-7.324,-6.239 -14.14,-15.462 -20.447,-27.669c-6.307,-12.207 -9.46,-27.534 -9.46,-45.98l-0,-217.692c-0,-29.975 6.002,-55.949 18.005,-77.922c12.004,-21.973 28.992,-38.927 50.965,-50.862c21.971,-11.936 48.013,-17.904 78.124,-17.904l203.858,-0l0,-1.221c-2.578,-15.598 -8.139,-29.635 -16.683,-42.112c-8.545,-12.481 -20.514,-22.382 -35.909,-29.705c-15.394,-7.325 -34.688,-10.987 -57.883,-10.987l-380.247,-0c-36.079,-0 -63.816,9.426 -83.212,28.279c-19.395,18.853 -29.093,45.438 -29.093,79.753l-0,280.558c-0,32.959 9.053,58.289 27.16,75.989c18.108,17.7 43.98,26.55 77.617,26.55l38.452,0l0,75.073c0,10.58 2.814,18.955 8.443,25.127c5.629,6.171 13.258,9.257 22.888,9.257Zm494.792,40.893c9.767,0 17.431,-3.085 22.992,-9.257c5.561,-6.171 8.341,-14.546 8.341,-25.126l0,-75.073l27.059,-0c33.636,-0 59.508,-8.85 77.616,-26.55c18.106,-17.7 27.159,-43.03 27.159,-75.989l-0,-189.819c-0,-34.451 -9.732,-61.069 -29.196,-79.855c-19.464,-18.785 -47.167,-28.178 -83.108,-28.178l-308.634,0c-36.622,0 -64.461,9.461 -83.517,28.382c-19.057,18.921 -28.585,46.692 -28.585,83.313l0,186.157c0,34.044 9.562,59.645 28.686,76.802c19.125,17.158 46.93,25.737 83.416,25.737l115.15,-0l102.134,89.925c8.138,7.189 15.259,12.241 21.362,15.157c6.103,2.916 12.478,4.374 19.125,4.374Zm-103.15,-284.017c-9.086,0 -16.139,-2.373 -21.158,-7.12c-5.02,-4.748 -7.732,-11.529 -8.138,-20.345l-4.071,-76.091c-0.405,-9.494 2.478,-17.259 8.65,-23.295c6.17,-6.036 14.341,-9.054 24.513,-9.054c10.172,0 18.311,3.018 24.417,9.054c6.102,6.036 8.95,13.869 8.541,23.499l-4.066,75.48c-0.409,9.087 -3.088,16.004 -8.038,20.752c-4.95,4.747 -11.833,7.12 -20.65,7.12Zm-0.204,90.536c-10.714,-0 -19.19,-2.679 -25.429,-8.036c-6.239,-5.358 -9.359,-12.784 -9.359,-22.278c0,-9.359 3.12,-16.717 9.359,-22.074c6.239,-5.358 14.715,-8.037 25.429,-8.037c10.444,-0 18.854,2.679 25.229,8.037c6.375,5.357 9.563,12.715 9.563,22.074c-0,9.494 -3.155,16.92 -9.463,22.278c-6.305,5.357 -14.749,8.036 -25.329,8.036Z" style="fill:#0082ca;fill-rule:nonzero;"/></svg>