<?xml version="1.0" encoding="UTF-8" standalone="no"?><!DOCTYPE svg PUBLIC "-//W3C//DTD SVG 1.1//EN" "http://www.w3.org/Graphics/SVG/1.1/DTD/svg11.dtd"><svg width="100%" height="100%" viewBox="0 0 3714 3105" version="1.1" xmlns="http://www.w3.org/2000/svg" xmlns:xlink="http://www.w3.org/1999/xlink" xml:space="preserve" xmlns:serif="http://www.serif.com/" style="fill-rule:evenodd;clip-rule:evenodd;stroke-linejoin:round;stroke-miterlimit:2;"><ellipse cx="1744.35" cy="3029.98" rx="1466.67" ry="75" style="fill:#f2f2f2;"/><path d="M2215.32,1344.17c-6.46,3.375 -13.03,6.57 -19.71,9.584c-6.084,2.75 -12.264,5.333 -18.541,7.75c-2.293,0.875 -4.624,1.75 -6.958,2.625c-18.448,6.69 -37.396,11.915 -56.667,15.625c-9.542,1.875 -19.208,3.347 -29,4.416c-8.083,0.917 -16.249,1.57 -24.499,1.959c-5.876,0.291 -11.752,0.416 -17.668,0.416c-23.431,0.01 -46.811,-2.18 -69.832,-6.541c-6.002,-1.084 -11.876,-2.375 -17.751,-3.792c-28.419,-6.811 -55.93,-16.965 -81.958,-30.25c-2.334,-1.167 -4.668,-2.417 -7.001,-3.625c-3.459,-1.833 -6.832,-3.75 -10.207,-5.75c1.623,-2.25 3.375,-4.458 5.165,-6.625c41.924,-51.955 105.211,-82.208 171.971,-82.208c58.78,-0 115.198,23.454 156.655,65.125c7.6,7.626 14.646,15.786 21.083,24.416c1.708,2.25 3.333,4.542 4.918,6.875Z" style="fill:#0082ca;fill-rule:nonzero;"/><circle cx="2050.6" cy="978.181" r="182.957" style="fill:#2f2e41;"/><path d="M1968.63,922.43c65.944,-36.048 148.75,-11.776 184.798,54.168c36.049,65.945 11.777,148.75 -54.168,184.799c-65.944,36.048 -148.75,11.777 -184.798,-54.168c-36.049,-65.945 -11.777,-148.75 54.168,-184.799Z" style="fill:#a0616a;"/><path d="M2177.03,956.263c-31.112,21.444 -68.055,32.86 -105.841,32.709c13.48,9.347 28.828,15.662 44.983,18.507c-50.245,10.778 -102.179,11.07 -152.542,0.857c-11.195,-1.795 -21.997,-5.505 -31.933,-10.968c-10.008,-5.589 -17.18,-15.18 -19.711,-26.361c-3.346,-19.119 11.552,-36.489 27.034,-48.195c47.971,-35.72 109.554,-48.026 167.569,-33.485c18.719,4.838 37.47,13.013 49.629,28.046c12.158,15.032 15.759,38.207 4.176,53.687l16.636,-14.797Z" style="fill:#2f2e41;fill-rule:nonzero;"/><path d="M2042.28,636.543l-0.055,0c-205.689,0 -374.945,169.256 -374.945,374.945c0,130.639 68.276,252.199 179.834,320.18l2.417,1.417c2,1.208 4,2.375 6,3.5c3.375,2 6.748,3.916 10.207,5.75c2.334,1.208 4.667,2.458 7.001,3.625c26.028,13.285 53.54,23.439 81.958,30.25c5.875,1.416 11.749,2.708 17.751,3.791c23.021,4.362 46.401,6.552 69.832,6.542c5.917,0 11.792,-0.125 17.668,-0.417c8.25,-0.375 16.416,-1.027 24.499,-1.958c9.792,-1.083 19.459,-2.555 29,-4.417c19.271,-3.709 38.219,-8.934 56.667,-15.625c2.334,-0.875 4.666,-1.75 6.958,-2.625c6.291,-2.416 12.471,-5 18.541,-7.75c6.667,-3 13.237,-6.194 19.71,-9.583c64.857,-33.966 118.48,-86.041 154.332,-149.875c0.166,-0.333 0.376,-0.667 0.543,-1c19.129,-34.327 32.7,-71.468 40.208,-110.042c4.572,-23.557 6.874,-47.498 6.874,-71.495c0,-205.756 -169.244,-375.096 -375,-375.213Zm321.084,551.875c-0.334,0.584 -0.625,1.167 -0.959,1.709c-35.135,62.891 -88.006,114.08 -152,147.166c-6.376,3.334 -12.862,6.459 -19.458,9.375c-5.458,2.459 -11.041,4.792 -16.666,6.959c-2.377,0.916 -4.792,1.833 -7.209,2.666c-15.938,5.822 -32.271,10.5 -48.875,14c-12.317,2.622 -24.765,4.584 -37.292,5.875c-7.709,0.834 -15.542,1.417 -23.417,1.709c-5.042,0.208 -10.124,0.333 -15.208,0.333c-22.675,0.027 -45.302,-2.08 -67.582,-6.292c-13.555,-2.5 -26.953,-5.783 -40.127,-9.833c-20.068,-6.2 -39.569,-14.104 -58.29,-23.625c-2.167,-1.125 -4.334,-2.25 -6.46,-3.417c-3.042,-1.625 -6.124,-3.291 -9.125,-5.083c-2.25,-1.25 -4.5,-2.583 -6.708,-3.917c-1.291,-0.75 -2.583,-1.541 -3.875,-2.333c-108.568,-66.674 -174.921,-185.289 -174.921,-312.695c-0,-201.304 165.648,-366.952 366.952,-366.952c201.304,0 366.952,165.648 366.952,366.952c-0,62.046 -15.737,123.09 -45.733,177.403l0.001,0Z" style="fill:#3f3d56;fill-rule:nonzero;"/><path d="M1957.95,797.749c-1.969,-20.7 -27.327,-33.444 -47.158,-27.191c-19.831,6.253 -32.851,26.22 -36.786,46.638c-3.823,17.359 -0.575,35.547 9.022,50.51c10.024,14.426 28.444,23.429 45.625,19.766c19.613,-4.18 33.201,-23.331 37.089,-43.004c3.887,-19.673 0.027,-39.955 -3.828,-59.635l-3.964,12.916Z" style="fill:#2f2e41;fill-rule:nonzero;"/><path d="M2237.04,827.32c-1.969,-20.7 -27.327,-33.444 -47.158,-27.191c-19.831,6.253 -32.85,26.22 -36.786,46.638c-3.823,17.36 -0.575,35.547 9.022,50.51c10.024,14.426 28.444,23.429 45.625,19.767c19.613,-4.181 33.201,-23.332 37.089,-43.005c3.888,-19.673 0.028,-39.955 -3.828,-59.634l-3.964,12.915Z" style="fill:#2f2e41;fill-rule:nonzero;"/><path d="M1394.1,1161.41c-5.243,-0.005 -10.249,-2.222 -13.777,-6.102l-206.759,-225.555c-4.741,-5.161 -11.435,-8.105 -18.443,-8.114l-1092.58,0c-34.293,-0.038 -62.5,-28.245 -62.539,-62.538l0,-394.011c0.038,-34.293 28.246,-62.5 62.539,-62.538l1415.52,-0c34.294,0.038 62.501,28.245 62.539,62.538l0,394.011c-0.038,34.293 -28.246,62.5 -62.539,62.538l-40.13,0c-13.72,0.016 -25.004,11.301 -25.02,25.021l0,195.971c0.033,7.729 -4.743,14.712 -11.958,17.483c-2.184,0.854 -4.508,1.294 -6.853,1.296Z" style="fill:#fff;fill-rule:nonzero;"/><path d="M1394.1,1161.41c-5.243,-0.005 -10.249,-2.222 -13.777,-6.102l-206.759,-225.555c-4.741,-5.161 -11.435,-8.105 -18.443,-8.114l-1092.58,0c-34.293,-0.038 -62.5,-28.245 -62.539,-62.538l0,-394.011c0.038,-34.293 28.246,-62.5 62.539,-62.538l1415.52,-0c34.294,0.038 62.501,28.245 62.539,62.538l0,394.011c-0.038,34.293 -28.246,62.5 -62.539,62.538l-40.13,0c-13.72,0.016 -25.004,11.301 -25.02,25.021l0,195.971c0.033,7.729 -4.743,14.712 -11.958,17.483c-2.184,0.854 -4.508,1.294 -6.853,1.296Zm-1331.56,-750.525c-29.724,0.034 -54.172,24.482 -54.206,54.205l0,394.011c0.034,29.723 24.482,54.172 54.206,54.205l1092.58,0c9.342,0.01 18.265,3.936 24.585,10.816l206.759,225.555c1.974,2.153 4.765,3.381 7.686,3.381c5.72,-0 10.427,-4.707 10.427,-10.427l0,-195.971c0.02,-18.29 15.063,-33.333 33.353,-33.354l40.13,0c29.724,-0.033 54.172,-24.482 54.206,-54.205l-0,-394.011c-0.034,-29.723 -24.482,-54.171 -54.206,-54.205l-1415.52,0Z" style="fill:#3f3d56;fill-rule:nonzero;"/><circle cx="153.4" cy="521.639" r="54.724" style="fill:#0082ca;"/><path d="M1414.22,824.444l-1287.83,0c-0.011,0 -0.023,0 -0.035,0c-16.011,0 -29.186,-13.175 -29.186,-29.186c0,-16.011 13.175,-29.186 29.186,-29.186c0.012,0 0.024,0 0.035,0l1287.83,0c15.998,0.019 29.151,13.189 29.151,29.186c0,15.998 -13.153,29.167 -29.151,29.186Z" style="fill:#e6e6e6;fill-rule:nonzero;"/><path d="M994.667,700.404l-868.284,-0c-0.011,-0 -0.023,-0 -0.035,-0c-16.011,-0 -29.186,-13.175 -29.186,-29.186c0,-16.011 13.175,-29.186 29.186,-29.186c0.012,-0 0.024,-0 0.035,-0l868.284,-0c16.011,-0 29.186,13.175 29.186,29.186c0,16.011 -13.175,29.186 -29.186,29.186Z" style="fill:#e6e6e6;fill-rule:nonzero;"/><path d="M2312.78,2497.62c-7.215,-2.771 -11.992,-9.754 -11.958,-17.483l-0,-195.971c-0.016,-13.72 -11.3,-25.005 -25.02,-25.021l-40.13,0c-34.293,-0.038 -62.5,-28.245 -62.539,-62.538l0,-394.011c0.038,-34.293 28.246,-62.5 62.539,-62.538l1415.52,-0c34.293,0.038 62.501,28.245 62.539,62.538l0,394.011c-0.039,34.293 -28.246,62.5 -62.539,62.538l-1092.58,0c-7.008,0.009 -13.702,2.953 -18.443,8.114l-206.759,225.555c-3.528,3.88 -8.534,6.097 -13.777,6.102c-2.345,-0.002 -4.669,-0.442 -6.853,-1.296Z" style="fill:#fff;fill-rule:nonzero;"/><path d="M2312.78,2497.62c-7.215,-2.771 -11.992,-9.754 -11.958,-17.483l-0,-195.971c-0.016,-13.72 -11.3,-25.005 -25.02,-25.021l-40.13,0c-34.293,-0.038 -62.5,-28.245 -62.539,-62.538l0,-394.011c0.038,-34.293 28.246,-62.5 62.539,-62.538l1415.52,-0c34.293,0.038 62.501,28.245 62.539,62.538l0,394.011c-0.039,34.293 -28.246,62.5 -62.539,62.538l-1092.58,0c-7.008,0.009 -13.702,2.953 -18.443,8.114l-206.759,225.555c-3.528,3.88 -8.534,6.097 -13.777,6.102c-2.345,-0.002 -4.669,-0.442 -6.853,-1.296Zm-77.108,-749.229c-29.724,0.034 -54.172,24.482 -54.206,54.205l0,394.011c0.034,29.723 24.482,54.172 54.206,54.205l40.13,0c18.29,0.021 33.333,15.064 33.353,33.354l-0,195.971c0,5.72 4.707,10.427 10.427,10.427c2.921,-0 5.712,-1.228 7.686,-3.381l206.759,-225.555c6.32,-6.88 15.243,-10.806 24.585,-10.816l1092.58,0c29.724,-0.034 54.172,-24.482 54.206,-54.205l-0,-394.011c-0.034,-29.723 -24.482,-54.171 -54.206,-54.205l-1415.52,0Z" style="fill:#3f3d56;fill-rule:nonzero;"/><path d="M1871.57,2619.63c-118.21,75.693 -269.652,78.103 -390.21,6.208c10.415,-19.386 23.611,-37.144 39.168,-52.709c41.767,-41.965 98.595,-65.583 157.802,-65.583c78.746,-0 151.85,41.778 191.822,109.625c0.458,0.792 0.958,1.625 1.418,2.459Z" style="fill:#0082ca;fill-rule:nonzero;"/><circle cx="1660.18" cy="2236.2" r="184.173" style="fill:#2f2e41;"/><path d="M1556.66,2234.61c36.288,-66.383 119.643,-90.816 186.026,-54.528c66.383,36.288 90.816,119.644 54.528,186.027c-36.288,66.382 -119.644,90.816 -186.027,54.527c-66.382,-36.288 -90.816,-119.643 -54.527,-186.026Z" style="fill:#ffb8b8;"/><path d="M1532.91,2214.14c31.319,21.587 68.507,33.08 106.545,32.928c-13.57,9.409 -29.02,15.765 -45.282,18.629c50.579,10.85 102.858,11.143 153.555,0.863c11.27,-1.807 22.144,-5.542 32.146,-11.041c10.074,-5.626 17.294,-15.281 19.841,-26.536c3.369,-19.246 -11.627,-36.732 -27.213,-48.516c-48.29,-35.957 -110.282,-48.344 -168.682,-33.707c-18.843,4.87 -37.72,13.1 -49.959,28.232c-12.239,15.132 -15.864,38.462 -4.204,54.044l-16.747,-14.896Z" style="fill:#2f2e41;fill-rule:nonzero;"/><path d="M1671.45,2682.38c-205.611,-0.064 -374.767,-169.273 -374.767,-374.884c-0,-205.655 169.228,-374.884 374.883,-374.884c205.655,0 374.884,169.229 374.884,374.884c-0,127.621 -65.169,246.783 -172.622,315.639c-60.386,38.721 -130.644,59.288 -202.378,59.244Zm-0,-741.666c-0.012,-0 -0.023,-0 -0.035,-0c-201.166,-0 -366.701,165.535 -366.701,366.701c-0,201.167 165.535,366.701 366.701,366.701c201.167,0 366.702,-165.534 366.702,-366.701c-0,-0.011 -0,-0.023 -0.001,-0.035c-0.227,-201.061 -165.605,-366.439 -366.666,-366.666Z" style="fill:#3f3d56;fill-rule:nonzero;"/><circle cx="2349.23" cy="1854.97" r="54.724" style="fill:#0082ca;"/><path d="M3610.05,2157.78l-1287.83,-0c-0.011,-0 -0.023,-0 -0.034,-0c-16.011,-0 -29.186,-13.175 -29.186,-29.186c-0,-16.011 13.175,-29.186 29.186,-29.186c0.011,-0 0.023,-0 0.034,-0l1287.83,-0c16.011,-0 29.186,13.175 29.186,29.186c0,16.011 -13.175,29.186 -29.186,29.186Z" style="fill:#e6e6e6;fill-rule:nonzero;"/><path d="M3190.5,2033.74l-868.284,0c-0.011,0 -0.023,0 -0.034,0c-16.011,0 -29.186,-13.175 -29.186,-29.186c-0,-16.011 13.175,-29.186 29.186,-29.186c0.011,0 0.023,0 0.034,0l868.284,0c15.998,0.019 29.152,13.188 29.152,29.186c-0,15.998 -13.154,29.167 -29.152,29.186Z" style="fill:#e6e6e6;fill-rule:nonzero;"/><ellipse cx="2311.01" cy="2523.59" rx="102.1" ry="11.332" style="fill:#f2f2f2;"/><ellipse cx="1398.52" cy="1190.25" rx="102.1" ry="11.332" style="fill:#f2f2f2;"/></svg>