<?xml version="1.0" encoding="UTF-8" standalone="no"?><!DOCTYPE svg PUBLIC "-//W3C//DTD SVG 1.1//EN" "http://www.w3.org/Graphics/SVG/1.1/DTD/svg11.dtd"><svg width="100%" height="100%" viewBox="0 0 7763 2892" version="1.1" xmlns="http://www.w3.org/2000/svg" xmlns:xlink="http://www.w3.org/1999/xlink" xml:space="preserve" xmlns:serif="http://www.serif.com/" style="fill-rule:evenodd;clip-rule:evenodd;stroke-linejoin:round;stroke-miterlimit:2;"><rect id="Artboard2" x="0" y="-0" width="7762.5" height="2891.67" style="fill:none;"/><g id="Payment-Services" serif:id="Payment Services"><g id="Services"><path d="M4420.81,2047.2c-45.125,-37.866 -96.696,-66.862 -157.929,-66.862c-70.904,-0 -127.309,40.271 -127.309,94.271c0.001,57.22 57.2,82.2 159.546,107.183c102.325,24.979 160.338,70.079 160.338,146.629c-0,100.742 -85.4,167.625 -200.633,167.625c-58.013,0 -114.417,-16.129 -178.876,-60.442l0.001,-71.716c45.92,43.512 114.416,80.587 179.691,80.587c74.917,0 137.788,-43.516 137.788,-108.791c-0,-56.405 -45.946,-87.83 -145.046,-110.405c-95.088,-21.754 -171.638,-60.416 -171.638,-146.633c0,-88.646 81.384,-149.879 186.138,-149.879c52.383,-0 103.141,15.292 157.929,47.529l0,70.904Z" style="fill:#fff;fill-rule:nonzero;"/><path d="M4898.69,2242.21c-8.871,-58.016 -49.142,-95.087 -104.754,-95.087c-57.217,-0 -95.088,40.296 -115.234,95.087l219.988,0Zm-226.434,42.725c3.225,39.479 7.263,78.954 34.65,115.209c28.2,37.075 66.884,49.962 101.53,49.962c49.166,0 97.512,-27.387 141.825,-75.733l-0,61.233c-52.363,42.7 -100.713,60.442 -146.659,60.442c-103.937,-0 -186.133,-83.809 -186.133,-195.821c-0,-109.588 77.367,-196.596 182.121,-196.596c70.104,0 157.929,52.367 157.929,181.304l-285.263,0Z" style="fill:#fff;fill-rule:nonzero;"/><path d="M5366.9,2162.43c-12.888,-4.829 -24.167,-8.054 -37.871,-8.054c-70.896,0 -112.013,74.942 -112.013,150.675l0,182.121l-50.75,0l0,-374.7l46.734,0l3.225,64.454l1.612,0c22.55,-47.529 58.829,-68.471 107.179,-68.471c20.121,0 35.438,2.405 41.884,4.017l-0,49.958Z" style="fill:#fff;fill-rule:nonzero;"/><path d="M5585.29,2112.47l119.275,321.517l121.655,-321.517l50.779,0l-149.884,374.7l-48.345,0l-149.88,-374.7l56.4,0Z" style="fill:#fff;fill-rule:nonzero;"/><path d="M6638.53,2210.78c-36.279,-34.642 -79.77,-61.234 -130.546,-61.234c-75.737,0 -132.137,66.884 -132.137,149.879c0,85.421 58.804,150.675 135.354,150.675c50.779,0 89.442,-24.983 127.329,-62.845l0,66.066c-42.721,29.813 -84.604,42.721 -128.12,42.721c-107.18,0 -189.355,-87.033 -189.355,-195.821c0,-107.975 80.567,-196.596 190.146,-196.596c44.338,0 84.608,12.071 127.329,41.884l0,65.271Z" style="fill:#fff;fill-rule:nonzero;"/><path d="M7089.79,2242.21c-8.875,-58.016 -49.146,-95.087 -104.755,-95.087c-57.22,-0 -95.087,40.296 -115.233,95.087l219.988,0Zm-226.434,42.725c3.225,39.479 7.259,78.954 34.65,115.209c28.196,37.075 66.88,49.962 101.53,49.962c49.166,0 97.512,-27.387 141.825,-75.733l-0,61.233c-52.363,42.7 -100.717,60.442 -146.659,60.442c-103.937,-0 -186.137,-83.809 -186.137,-195.821c-0,-109.588 77.366,-196.596 182.121,-196.596c70.108,0 157.933,52.367 157.933,181.304l-285.263,0Z" style="fill:#fff;fill-rule:nonzero;"/><path d="M7591.86,2202.73c-36.254,-31.425 -81.379,-53.184 -129.733,-53.184c-49.142,0 -87.825,25.775 -87.825,58.017c-0,37.075 44.312,53.183 121.679,70.104c79.771,17.721 120.858,48.35 120.858,100.717c0,64.479 -65.25,117.662 -155.504,117.662c-50.779,0 -101.529,-15.312 -142.621,-41.112l0,-61.238c41.092,33.855 90.233,56.405 140.192,56.405c54.791,-0 99.129,-30.609 99.129,-66.888c-0,-38.658 -41.908,-50.75 -115.233,-66.858c-71.721,-16.134 -123.292,-47.559 -123.292,-104.754c-0,-63.663 60.442,-107.971 144.229,-107.971c48.346,-0 95.088,14.491 128.121,37.866l-0,61.234Z" style="fill:#fff;fill-rule:nonzero;"/><g id="i"><path d="M6117.97,2487.18l-50.779,0l-0,-374.7l50.779,-0l-0,374.7Zm-25.796,-449.642c-19.333,0 -28.996,-20.146 -28.996,-43.516c0,-28.996 10.458,-46.713 28.996,-46.713c21.758,0 29.813,23.346 29.813,45.1c-0.001,19.359 -7.238,45.129 -29.813,45.129" style="fill:#fff;fill-rule:nonzero;"/><path d="M6148.41,1996.59c-0,28.712 -23.275,51.987 -51.988,51.987c-28.704,0 -51.979,-23.275 -51.979,-51.987c0,-28.708 23.275,-51.983 51.979,-51.983c28.713,-0 51.988,23.275 51.988,51.983" style="fill:#fff;fill-rule:nonzero;"/></g></g><g id="Payment"><path d="M282.727,2189.84c64.458,-0 122.471,-37.867 122.471,-104.755c-0,-66.883 -54.792,-99.125 -128.913,-99.125l-120.07,0l-0,203.88l126.512,-0Zm-2.404,-252.225c116.029,-0 186.133,48.345 186.133,142.637c0,99.104 -77.366,157.938 -178.079,157.938l-132.162,-0l-0,248.979l-54.792,-0l-0,-549.554l178.9,-0Z" style="fill:#fff;fill-rule:nonzero;"/><path d="M848.417,2315.53l0,-19.329c-119.25,11.275 -195.8,27.388 -195.8,88.646c0,33.029 29.813,65.25 78.163,65.25c61.233,-0 117.637,-55.588 117.637,-134.567m49.958,107.184c0,11.274 4.834,28.2 24.98,28.2c9.67,-0 16.133,-3.221 24.979,-6.446l-0,39.479c-21.754,6.446 -34.642,7.262 -44.309,7.262c-45.941,0 -55.608,-17.745 -55.608,-72.537c-28.204,54 -70.108,77.367 -121.679,77.367c-71.692,-0.001 -128.913,-45.942 -128.913,-112.013c0,-24.979 7.259,-45.921 21.759,-62.05c30.604,-33.037 74.121,-52.367 228.833,-68.5c-1.612,-56.4 -29.812,-103.933 -99.104,-103.933c-39.475,-0 -75.754,16.108 -120.067,51.57l0,-57.216c38.688,-24.984 83.813,-40.271 129.734,-40.271c91.05,0 139.395,63.637 139.395,140.188l0,178.899Z" style="fill:#fff;fill-rule:nonzero;"/><path d="M1125.67,2112.47l128.912,316.688l109.588,-316.688l55.608,0l-174.042,466.567c-27.408,72.508 -62.05,86.212 -103.141,86.212c-20.146,0 -33.059,-3.216 -49.163,-8.87l0,-48.346c12.884,7.258 28.196,11.296 43.513,11.296c33.037,-0 49.958,-18.538 60.441,-48.346l31.425,-87.038l-159.545,-371.475l56.404,0Z" style="fill:#fff;fill-rule:nonzero;"/><path d="M2001.6,2103.63c85.4,0 115.209,55.584 115.209,143.413l-0,240.133l-50.75,0l-0,-253.812c-0,-54 -32.242,-83.813 -68.496,-83.813c-61.238,0 -107.179,67.679 -107.179,145.838l-0,191.787l-50.754,0l-0,-254.633c-0,-48.35 -29.813,-82.992 -68.5,-82.992c-57.196,0 -107.155,62.846 -107.155,148.267l0,189.358l-50.779,0l0,-374.7l47.534,0l2.425,59.625l1.612,0c24.979,-47.533 62.846,-68.471 111.2,-68.471c57.217,0 92.679,28.2 108.788,77.342c23.366,-51.567 62.845,-77.342 116.845,-77.342" style="fill:#fff;fill-rule:nonzero;"/><path d="M2593.91,2242.21c-8.871,-58.016 -49.142,-95.087 -104.754,-95.087c-57.217,-0 -95.088,40.296 -115.234,95.087l219.988,0Zm-226.434,42.725c3.225,39.479 7.263,78.954 34.65,115.209c28.2,37.075 66.884,49.962 101.53,49.962c49.166,0 97.512,-27.387 141.825,-75.733l-0,61.233c-52.363,42.7 -100.713,60.442 -146.659,60.442c-103.937,-0 -186.133,-83.809 -186.133,-195.821c-0,-109.588 77.367,-196.596 182.121,-196.596c70.104,0 157.929,52.367 157.929,181.304l-285.263,0Z" style="fill:#fff;fill-rule:nonzero;"/><path d="M3170.08,2487.17l-50.754,-0l-0,-249.8c-0,-48.35 -30.625,-87.825 -82.996,-87.825c-70.104,-0 -116.846,70.108 -116.846,142.617l0,195.008l-48.346,-0l0,-374.7l44.313,-0l3.22,70.108l1.613,0c28.196,-54.791 68.492,-78.954 120.883,-78.954c80.563,0 128.913,53.975 128.913,130.525l-0,253.021Z" style="fill:#fff;fill-rule:nonzero;"/><path d="M3427.21,2001.28l45.921,0l-0,110.4l99.125,0l-0,45.125l-99.125,0l-0,240.93c-0,32.22 12.091,52.366 48.345,52.366c13.705,0 24.188,-0.796 50.78,-12.887l-0,45.925c-18.538,5.646 -36.259,9.687 -58.834,9.687c-54.791,0 -91.046,-26.591 -91.046,-80.591l0,-255.43l-63.662,0l-0,-45.125l63.662,0l4.834,-110.4Z" style="fill:#fff;fill-rule:nonzero;"/></g></g><g id="Choice"><path d="M3237.46,197.002l-0,289.066c-141.059,-117.987 -286.967,-177.004 -437.805,-177.004c-166.175,0 -306.179,59.717 -419.991,179.104c-114.513,118.717 -171.754,263.95 -171.754,435.704c-0,169.676 57.241,312.809 171.754,429.421c114.512,116.613 254.866,174.909 421.041,174.909c85.888,-0 158.846,-13.963 218.913,-41.884c33.504,-13.962 68.242,-32.825 104.196,-56.566c35.971,-23.742 73.837,-52.367 113.646,-85.888l-0,294.317c-139.659,78.912 -286.292,118.341 -439.88,118.341c-231.125,0 -428.375,-80.637 -591.77,-241.933c-162.7,-162.696 -244.034,-358.896 -244.034,-588.617c0,-205.979 68.075,-389.616 204.229,-550.912c167.575,-197.596 384.388,-296.396 650.413,-296.396c145.233,0 285.562,39.454 421.042,118.338" style="fill:#fff;fill-rule:nonzero;"/><path d="M3426.28,73.937l220.221,-0l-0,779.154c78.325,-70.483 164.771,-105.713 259.391,-105.713c107.671,0 193.821,34.925 258.417,104.73c54.817,60.7 82.221,157.608 82.221,290.725l-0,584.366l-220.242,0l0,-563.825c0,-76.337 -13.537,-131.646 -40.621,-165.891c-27.079,-34.271 -70.641,-51.409 -130.662,-51.409c-77.021,0 -131.158,23.838 -162.492,71.463c-30.675,48.3 -46.012,131.179 -46.012,248.629l-0,461.033l-220.221,0l-0,-1653.26Z" style="fill:#fff;fill-rule:nonzero;"/><path d="M4575.31,1247.56c0,95.296 25.446,170.659 76.338,226.129c52.204,56.121 121.05,84.159 206.545,84.159c86.142,-0 154.967,-27.713 206.538,-83.179c51.546,-55.471 77.321,-129.546 77.321,-222.205c-0,-92.662 -25.775,-166.737 -77.321,-222.204c-52.225,-56.104 -121.05,-84.187 -206.538,-84.187c-84.187,-0 -152.383,28.083 -204.583,84.187c-52.221,56.146 -78.3,128.563 -78.3,217.3m-225.146,-3.9c0,-137.691 49.284,-254.841 147.805,-351.421c98.537,-96.558 218.604,-144.862 360.224,-144.862c142.242,-0 262.963,48.629 362.163,145.842c97.887,97.258 146.842,216.67 146.842,358.262c-0,142.9 -49.284,262.663 -147.825,359.246c-99.196,95.929 -220.896,143.879 -365.105,143.879c-142.9,0 -262.662,-48.933 -359.22,-146.821c-96.579,-96.583 -144.884,-217.954 -144.884,-364.125" style="fill:#fff;fill-rule:nonzero;"/><path d="M5730.18,1727.2l-220.221,-0l0,-953.392l220.221,0l0,953.392Zm-253.512,-1349.83c-0,-38.496 14.033,-71.763 42.095,-99.825c28.034,-28.063 61.655,-42.092 100.805,-42.092c39.804,0 73.754,14.029 101.812,42.092c28.058,27.408 42.092,61.004 42.092,100.804c-0,39.808 -14.034,73.754 -42.092,101.813c-27.408,28.062 -61.029,42.091 -100.829,42.091c-39.804,0 -73.754,-14.029 -101.788,-42.091c-28.062,-28.059 -42.096,-62.309 -42.096,-102.792" style="fill:#fff;fill-rule:nonzero;"/><path d="M6660.88,814.918l-0,292.687c-50.242,-61.354 -95.25,-103.425 -135.08,-126.279c-39.129,-23.488 -85.162,-35.25 -138.016,-35.25c-82.879,-0 -151.7,29.042 -206.517,87.125c-54.817,58.083 -82.225,130.85 -82.225,218.283c0,89.413 26.429,162.813 79.283,220.242c53.505,57.429 121.721,86.121 204.6,86.121c52.859,-0 99.5,-11.388 139.934,-34.246c39.175,-22.179 85.166,-65.25 138.021,-129.217l-0,290.721c-89.413,46.317 -178.78,69.504 -268.196,69.504c-147.45,0 -270.809,-47.629 -369.984,-142.925c-99.195,-95.9 -148.779,-214.991 -148.779,-357.258c0,-142.271 50.242,-262.338 150.742,-360.225c100.479,-97.888 223.792,-146.821 369.983,-146.821c93.988,0 182.704,22.504 266.234,67.538" style="fill:#fff;fill-rule:nonzero;"/><path d="M7456.27,1122.26c-30.7,-117.45 -104.754,-176.191 -222.204,-176.191c-26.779,-0 -51.875,4.087 -75.383,12.258c-23.488,8.146 -44.871,19.892 -64.109,35.229c-19.262,15.338 -35.716,33.758 -49.42,55.304c-13.705,21.525 -24.167,45.992 -31.334,73.4l442.45,0Zm226.104,180.113l-683.237,-0c5.883,78.304 31.333,140.633 76.362,186.954c45.013,45.687 102.771,68.517 173.25,68.517c54.817,-0 100.155,-13.025 136.063,-39.146c35.229,-26.08 75.358,-74.384 120.392,-144.863l185.97,103.746c-28.716,48.958 -59.062,90.888 -91.025,125.787c-31.983,34.93 -66.229,63.617 -102.766,86.15c-36.559,22.505 -76.038,38.984 -118.454,49.421c-42.421,10.434 -88.434,15.667 -138.025,15.667c-142.267,-0 -256.45,-45.667 -342.571,-137.042c-86.146,-92.004 -129.221,-214.033 -129.221,-366.083c-0,-150.746 41.762,-272.775 125.296,-366.088c84.183,-92.004 195.779,-138.02 334.754,-138.02c140.308,-0 251.225,44.708 332.817,134.1c80.895,88.762 121.375,211.77 121.375,369.025l-0.98,51.875Z" style="fill:#fff;fill-rule:nonzero;"/></g><g id="icon"><path d="M753.929,417.994c-0,196.546 -159.334,355.879 -355.879,355.879c-196.546,-0 -355.88,-159.333 -355.88,-355.879c0,-196.546 159.334,-355.879 355.88,-355.879c196.545,-0 355.879,159.333 355.879,355.879" style="fill:#fff;fill-rule:nonzero;"/><path d="M1732.59,1399.79c-0,196.546 -159.329,355.879 -355.875,355.879c-196.55,0 -355.879,-159.333 -355.879,-355.879c-0,-196.546 159.329,-355.879 355.879,-355.879c196.546,-0 355.875,159.333 355.875,355.879" style="fill:#fff;fill-rule:nonzero;"/><path d="M396.487,1042.34c196.546,-0 355.879,159.333 355.879,355.879c-0,196.546 -159.333,355.879 -355.879,355.879c-196.546,0 -355.88,-159.333 -355.88,-355.879c0,-196.546 159.334,-355.879 355.88,-355.879" style="fill:#fff;fill-rule:nonzero;"/><path d="M1378.28,63.677c196.545,-0 355.875,159.333 355.875,355.879c-0,196.546 -159.33,355.879 -355.875,355.879c-196.55,0 -355.88,-159.333 -355.88,-355.879c0,-196.546 159.33,-355.879 355.88,-355.879" style="fill:#fff;fill-rule:nonzero;"/><path d="M1150.36,482.542l160.756,160.756l-657.344,657.344l-160.756,-160.757l657.344,-657.343Z" style="fill:#fff;"/></g></svg>