<?xml version="1.0" encoding="UTF-8" standalone="no"?><!DOCTYPE svg PUBLIC "-//W3C//DTD SVG 1.1//EN" "http://www.w3.org/Graphics/SVG/1.1/DTD/svg11.dtd"><svg width="100%" height="100%" viewBox="0 0 7651 2604" version="1.1" xmlns="http://www.w3.org/2000/svg" xmlns:xlink="http://www.w3.org/1999/xlink" xml:space="preserve" xmlns:serif="http://www.serif.com/" style="fill-rule:evenodd;clip-rule:evenodd;stroke-linejoin:round;stroke-miterlimit:2;"><g id="Layer-1" serif:id="Layer 1"><g id="Payment-Services" serif:id="Payment Services"><g id="Services"><path d="M4380.2,1985.09c-45.126,-37.867 -96.696,-66.863 -157.93,-66.863c-70.904,0 -127.308,40.271 -127.308,94.271c0,57.221 57.2,82.2 159.546,107.183c102.325,24.979 160.337,70.079 160.337,146.629c0,100.742 -85.4,167.625 -200.633,167.625c-58.013,0 -114.417,-16.129 -178.875,-60.441l-0,-71.717c45.921,43.513 114.417,80.588 179.692,80.588c74.916,-0 137.787,-43.517 137.787,-108.792c0,-56.404 -45.946,-87.829 -145.046,-110.404c-95.087,-21.754 -171.637,-60.417 -171.637,-146.634c-0,-88.645 81.383,-149.879 186.137,-149.879c52.384,0 103.142,15.292 157.929,47.529l0,70.905Z" style="fill:#81bc00;fill-rule:nonzero;"/><path d="M4858.09,2180.09c-8.871,-58.017 -49.141,-95.088 -104.754,-95.088c-57.217,0 -95.087,40.296 -115.233,95.088l219.987,-0Zm-226.433,42.725c3.225,39.479 7.262,78.954 34.65,115.208c28.2,37.075 66.883,49.963 101.529,49.963c49.167,-0 97.513,-27.388 141.825,-75.734l0,61.234c-52.362,42.7 -100.712,60.441 -146.658,60.441c-103.938,0 -186.134,-83.808 -186.134,-195.821c0,-109.587 77.367,-196.595 182.121,-196.595c70.104,-0 157.929,52.366 157.929,181.304l-285.262,-0Z" style="fill:#81bc00;fill-rule:nonzero;"/><path d="M5326.29,2100.32c-12.887,-4.829 -24.167,-8.054 -37.871,-8.054c-70.896,-0 -112.012,74.941 -112.012,150.675l-0,182.12l-50.75,0l-0,-374.7l46.733,0l3.225,64.455l1.613,-0c22.55,-47.53 58.829,-68.471 107.179,-68.471c20.121,-0 35.437,2.404 41.883,4.016l0,49.959Z" style="fill:#81bc00;fill-rule:nonzero;"/><path d="M5544.68,2050.36l119.275,321.516l121.654,-321.516l50.779,-0l-149.883,374.7l-48.346,-0l-149.879,-374.7l56.4,-0Z" style="fill:#81bc00;fill-rule:nonzero;"/><path d="M6597.93,2148.67c-36.279,-34.642 -79.771,-61.233 -130.546,-61.233c-75.738,-0 -132.137,66.883 -132.137,149.879c-0.001,85.421 58.804,150.675 135.354,150.675c50.779,-0 89.441,-24.983 127.329,-62.846l-0,66.067c-42.721,29.812 -84.604,42.721 -128.121,42.721c-107.179,-0 -189.354,-87.034 -189.354,-195.821c-0,-107.975 80.566,-196.596 190.146,-196.596c44.337,-0 84.608,12.071 127.329,41.883l-0,65.271Z" style="fill:#81bc00;fill-rule:nonzero;"/><path d="M7049.18,2180.09c-8.875,-58.017 -49.146,-95.088 -104.754,-95.088c-57.221,0 -95.088,40.296 -115.233,95.088l219.987,-0Zm-226.433,42.725c3.225,39.479 7.258,78.954 34.65,115.208c28.196,37.075 66.879,49.963 101.529,49.963c49.167,-0 97.513,-27.388 141.825,-75.734l0,61.234c-52.362,42.7 -100.717,60.441 -146.658,60.441c-103.938,0 -186.138,-83.808 -186.138,-195.821c0,-109.587 77.367,-196.595 182.121,-196.595c70.108,-0 157.933,52.366 157.933,181.304l-285.262,-0Z" style="fill:#81bc00;fill-rule:nonzero;"/><path d="M7551.25,2140.61c-36.254,-31.425 -81.379,-53.183 -129.733,-53.183c-49.142,-0 -87.825,25.775 -87.825,58.017c0,37.075 44.313,53.183 121.679,70.104c79.771,17.721 120.859,48.35 120.859,100.716c-0,64.48 -65.25,117.663 -155.505,117.663c-50.779,-0 -101.529,-15.313 -142.62,-41.113l-0,-61.237c41.091,33.854 90.233,56.404 140.191,56.404c54.792,0 99.129,-30.608 99.129,-66.887c0,-38.659 -41.908,-50.75 -115.233,-66.859c-71.721,-16.133 -123.292,-47.558 -123.292,-104.754c0,-63.662 60.442,-107.971 144.23,-107.971c48.345,0 95.087,14.492 128.12,37.867l0,61.233Z" style="fill:#81bc00;fill-rule:nonzero;"/><g id="i"><path d="M6077.36,2425.06l-50.779,0l0,-374.7l50.779,0l0,374.7Zm-25.796,-449.641c-19.333,-0 -28.995,-20.146 -28.995,-43.517c-0,-28.996 10.458,-46.712 28.995,-46.712c21.759,-0 29.813,23.345 29.813,45.1c0,19.358 -7.238,45.129 -29.813,45.129" style="fill:#81bc00;fill-rule:nonzero;"/><path d="M6107.81,1934.48c0,28.713 -23.275,51.988 -51.987,51.988c-28.704,-0 -51.979,-23.275 -51.979,-51.988c-0,-28.708 23.275,-51.983 51.979,-51.983c28.712,0 51.987,23.275 51.987,51.983" style="fill:#81bc00;fill-rule:nonzero;"/></g></g><g id="Payment"><path d="M242.12,2127.73c64.458,-0 122.47,-37.867 122.47,-104.754c0,-66.884 -54.791,-99.125 -128.912,-99.125l-120.071,-0l0,203.879l126.513,-0Zm-2.405,-252.225c116.03,-0 186.134,48.346 186.134,142.637c-0,99.105 -77.367,157.938 -178.079,157.938l-132.163,-0l0,248.979l-54.792,0l0,-549.554l178.9,-0Z" style="fill:#81bc00;fill-rule:nonzero;"/><path d="M807.81,2253.42l-0,-19.33c-119.25,11.275 -195.8,27.388 -195.8,88.646c-0,33.029 29.812,65.25 78.162,65.25c61.233,0 117.638,-55.587 117.638,-134.566m49.958,107.183c-0,11.275 4.833,28.2 24.979,28.2c9.671,-0 16.133,-3.221 24.979,-6.446l0,39.479c-21.754,6.446 -34.641,7.263 -44.308,7.263c-45.942,-0 -55.608,-17.746 -55.608,-72.538c-28.205,54 -70.109,77.367 -121.68,77.367c-71.691,-0 -128.912,-45.942 -128.912,-112.013c-0,-24.979 7.258,-45.92 21.758,-62.05c30.604,-33.037 74.121,-52.366 228.834,-68.5c-1.613,-56.4 -29.813,-103.933 -99.105,-103.933c-39.475,0 -75.754,16.108 -120.066,51.571l-0,-57.217c38.687,-24.983 83.812,-40.271 129.733,-40.271c91.05,0 139.396,63.638 139.396,140.188l-0,178.9Z" style="fill:#81bc00;fill-rule:nonzero;"/><path d="M1085.06,2050.36l128.913,316.687l109.587,-316.687l55.609,-0l-174.042,466.566c-27.408,72.509 -62.05,86.213 -103.142,86.213c-20.146,-0 -33.058,-3.217 -49.162,-8.871l-0,-48.346c12.883,7.258 28.196,11.296 43.512,11.296c33.038,-0 49.959,-18.538 60.442,-48.346l31.425,-87.037l-159.546,-371.475l56.404,-0Z" style="fill:#81bc00;fill-rule:nonzero;"/><path d="M1961,2041.51c85.4,-0 115.208,55.583 115.208,143.412l0,240.134l-50.75,-0l0,-253.813c0,-54 -32.241,-83.812 -68.496,-83.812c-61.237,-0 -107.179,67.679 -107.179,145.837l0,191.788l-50.754,-0l0,-254.634c0,-48.35 -29.812,-82.991 -68.5,-82.991c-57.196,-0 -107.154,62.845 -107.154,148.266l-0,189.359l-50.779,-0l-0,-374.7l47.533,-0l2.425,59.625l1.613,-0c24.979,-47.534 62.845,-68.471 111.2,-68.471c57.216,-0 92.679,28.2 108.787,77.341c23.367,-51.566 62.846,-77.341 116.846,-77.341" style="fill:#81bc00;fill-rule:nonzero;"/><path d="M2553.3,2180.09c-8.871,-58.017 -49.141,-95.088 -104.754,-95.088c-57.217,0 -95.087,40.296 -115.233,95.088l219.987,-0Zm-226.433,42.725c3.225,39.479 7.262,78.954 34.65,115.208c28.2,37.075 66.883,49.963 101.529,49.963c49.167,-0 97.513,-27.388 141.825,-75.734l0,61.234c-52.362,42.7 -100.712,60.441 -146.658,60.441c-103.938,0 -186.134,-83.808 -186.134,-195.821c0,-109.587 77.367,-196.595 182.121,-196.595c70.104,-0 157.929,52.366 157.929,181.304l-285.262,-0Z" style="fill:#81bc00;fill-rule:nonzero;"/><path d="M3129.47,2425.06l-50.754,0l0,-249.8c0,-48.35 -30.625,-87.825 -82.996,-87.825c-70.104,0 -116.845,70.109 -116.845,142.617l-0.001,195.008l-48.345,0l-0,-374.7l44.312,0l3.221,70.109l1.613,-0c28.195,-54.792 68.491,-78.955 120.883,-78.955c80.562,0 128.912,53.976 128.912,130.525l0,253.021Z" style="fill:#81bc00;fill-rule:nonzero;"/><path d="M3386.61,1939.17l45.921,-0l0,110.4l99.125,-0l0,45.125l-99.125,-0l0,240.929c0,32.221 12.092,52.367 48.346,52.367c13.704,-0 24.187,-0.796 50.779,-12.888l0,45.925c-18.537,5.646 -36.258,9.688 -58.833,9.688c-54.792,-0 -91.046,-26.592 -91.046,-80.592l-0,-255.429l-63.663,-0l0,-45.125l63.663,-0l4.833,-110.4Z" style="fill:#81bc00;fill-rule:nonzero;"/></g></g><g id="Choice"><path d="M3196.85,134.887l0,289.067c-141.058,-117.988 -286.967,-177.004 -437.804,-177.004c-166.175,-0 -306.179,59.716 -419.992,179.104c-114.512,118.716 -171.754,263.95 -171.754,435.704c0,169.675 57.242,312.808 171.754,429.421c114.513,116.612 254.867,174.908 421.042,174.908c85.887,0 158.846,-13.962 218.912,-41.883c33.505,-13.963 68.242,-32.825 104.196,-56.567c35.971,-23.742 73.838,-52.367 113.646,-85.887l0,294.316c-139.658,78.913 -286.292,118.342 -439.879,118.342c-231.125,-0 -428.375,-80.638 -591.771,-241.933c-162.7,-162.696 -244.033,-358.896 -244.033,-588.617c-0,-205.979 68.075,-389.617 204.229,-550.913c167.575,-197.595 384.387,-296.395 650.412,-296.395c145.234,-0 285.563,39.454 421.042,118.337" style="fill:#0082ca;fill-rule:nonzero;"/><path d="M3385.67,11.822l220.221,0l0,779.154c78.325,-70.483 164.771,-105.712 259.392,-105.712c107.671,-0 193.821,34.925 258.417,104.729c54.816,60.7 82.22,157.608 82.22,290.725l0,584.367l-220.241,-0l-0,-563.825c-0,-76.338 -13.538,-131.646 -40.621,-165.892c-27.079,-34.271 -70.642,-51.408 -130.663,-51.408c-77.02,-0 -131.158,23.837 -162.491,71.462c-30.675,48.3 -46.013,131.179 -46.013,248.629l0,461.034l-220.221,-0l0,-1653.26Z" style="fill:#0082ca;fill-rule:nonzero;"/><path d="M4534.7,1185.45c-0,95.296 25.445,170.658 76.337,226.129c52.204,56.121 121.05,84.158 206.546,84.158c86.142,0 154.967,-27.712 206.537,-83.179c51.546,-55.471 77.321,-129.546 77.321,-222.204c0,-92.663 -25.775,-166.738 -77.321,-222.204c-52.225,-56.104 -121.05,-84.188 -206.537,-84.188c-84.188,0 -152.383,28.084 -204.583,84.188c-52.221,56.146 -78.3,128.562 -78.3,217.3m-225.146,-3.9c-0,-137.692 49.283,-254.842 147.804,-351.421c98.537,-96.558 218.604,-144.863 360.225,-144.863c142.242,0 262.962,48.63 362.162,145.842c97.888,97.258 146.842,216.671 146.842,358.263c0,142.9 -49.283,262.662 -147.825,359.245c-99.196,95.93 -220.896,143.88 -365.104,143.88c-142.9,-0 -262.663,-48.934 -359.221,-146.821c-96.579,-96.584 -144.883,-217.954 -144.883,-364.125" style="fill:#0082ca;fill-rule:nonzero;"/><path d="M5689.57,1665.09l-220.221,0l-0,-953.391l220.221,-0l-0,953.391Zm-253.513,-1349.83c0,-38.496 14.033,-71.762 42.096,-99.825c28.033,-28.062 61.654,-42.091 100.804,-42.091c39.804,-0 73.754,14.029 101.813,42.091c28.058,27.409 42.091,61.004 42.091,100.804c0,39.809 -14.033,73.755 -42.092,101.813c-27.408,28.062 -61.029,42.092 -100.829,42.092c-39.804,-0 -73.754,-14.03 -101.787,-42.092c-28.063,-28.058 -42.096,-62.308 -42.096,-102.792" style="fill:#0082ca;fill-rule:nonzero;"/><path d="M6620.27,752.803l0,292.687c-50.242,-61.354 -95.25,-103.425 -135.079,-126.279c-39.129,-23.487 -85.163,-35.25 -138.017,-35.25c-82.879,0 -151.7,29.042 -206.516,87.125c-54.817,58.084 -82.225,130.85 -82.225,218.284c-0,89.412 26.429,162.812 79.283,220.241c53.504,57.429 121.721,86.121 204.6,86.121c52.858,0 99.5,-11.387 139.933,-34.246c39.175,-22.179 85.167,-65.25 138.021,-129.216l0,290.72c-89.412,46.317 -178.779,69.505 -268.196,69.505c-147.45,-0 -270.808,-47.63 -369.983,-142.925c-99.196,-95.9 -148.779,-214.992 -148.779,-357.259c-0,-142.271 50.241,-262.337 150.741,-360.225c100.48,-97.887 223.792,-146.821 369.984,-146.821c93.987,0 182.704,22.505 266.233,67.538" style="fill:#0082ca;fill-rule:nonzero;"/><path d="M7415.66,1060.15c-30.7,-117.45 -104.754,-176.192 -222.204,-176.192c-26.78,-0 -51.875,4.087 -75.384,12.258c-23.487,8.146 -44.871,19.892 -64.108,35.229c-19.263,15.338 -35.717,33.759 -49.421,55.305c-13.704,21.525 -24.167,45.991 -31.333,73.4l442.45,-0Zm226.104,180.112l-683.238,0c5.884,78.304 31.334,140.633 76.363,186.954c45.012,45.688 102.771,68.517 173.25,68.517c54.817,-0 100.154,-13.025 136.062,-39.146c35.23,-26.079 75.359,-74.383 120.392,-144.862l185.971,103.745c-28.717,48.959 -59.063,90.888 -91.025,125.788c-31.983,34.929 -66.229,63.617 -102.767,86.15c-36.558,22.504 -76.037,38.983 -118.454,49.421c-42.421,10.433 -88.433,15.666 -138.025,15.666c-142.267,0 -256.45,-45.666 -342.571,-137.041c-86.146,-92.004 -129.221,-214.034 -129.221,-366.084c0,-150.745 41.763,-272.775 125.296,-366.087c84.184,-92.004 195.779,-138.021 334.754,-138.021c140.309,0 251.225,44.708 332.817,134.1c80.896,88.763 121.375,211.771 121.375,369.025l-0.979,51.875Z" style="fill:#0082ca;fill-rule:nonzero;"/></g><g id="icon"><path d="M713.321,355.879c0,196.546 -159.333,355.879 -355.879,355.879c-196.546,0 -355.879,-159.333 -355.879,-355.879c-0,-196.546 159.333,-355.879 355.879,-355.879c196.546,0 355.879,159.333 355.879,355.879" style="fill:#81bc00;fill-rule:nonzero;"/><path d="M1691.99,1337.67c0,196.546 -159.329,355.88 -355.875,355.88c-196.55,-0 -355.879,-159.334 -355.879,-355.88c0,-196.545 159.329,-355.879 355.879,-355.879c196.546,0 355.875,159.334 355.875,355.879" style="fill:#81bc00;fill-rule:nonzero;"/><path d="M355.879,980.228c196.546,0 355.879,159.334 355.879,355.88c0,196.545 -159.333,355.879 -355.879,355.879c-196.546,-0 -355.879,-159.334 -355.879,-355.879c0,-196.546 159.333,-355.88 355.879,-355.88" style="fill:#0082ca;fill-rule:nonzero;"/><path d="M1337.67,1.562c196.546,0 355.875,159.333 355.875,355.879c0,196.546 -159.329,355.879 -355.875,355.879c-196.55,0 -355.879,-159.333 -355.879,-355.879c-0,-196.546 159.329,-355.879 355.879,-355.879" style="fill:#0082ca;fill-rule:nonzero;"/><path d="M1109.75,420.427l160.756,160.756l-657.343,657.344l-160.757,-160.756l657.344,-657.344Z" style="fill:#0082ca;"/></g></g></svg>