<?xml version="1.0" encoding="UTF-8" standalone="no"?><!DOCTYPE svg PUBLIC "-//W3C//DTD SVG 1.1//EN" "http://www.w3.org/Graphics/SVG/1.1/DTD/svg11.dtd"><svg width="100%" height="100%" viewBox="0 0 1694 1694" version="1.1" xmlns="http://www.w3.org/2000/svg" xmlns:xlink="http://www.w3.org/1999/xlink" xml:space="preserve" xmlns:serif="http://www.serif.com/" style="fill-rule:evenodd;clip-rule:evenodd;stroke-linejoin:round;stroke-miterlimit:2;"><g id="icon"><path d="M713.321,355.879c0,196.546 -159.333,355.879 -355.879,355.879c-196.546,0 -355.879,-159.333 -355.879,-355.879c-0,-196.546 159.333,-355.879 355.879,-355.879c196.546,0 355.879,159.333 355.879,355.879" style="fill:#81bc00;fill-rule:nonzero;"/><path d="M1691.99,1337.67c0,196.546 -159.329,355.88 -355.875,355.88c-196.55,-0 -355.879,-159.334 -355.879,-355.88c0,-196.545 159.329,-355.879 355.879,-355.879c196.546,0 355.875,159.334 355.875,355.879" style="fill:#81bc00;fill-rule:nonzero;"/><path d="M355.879,980.228c196.546,0 355.879,159.334 355.879,355.88c0,196.545 -159.333,355.879 -355.879,355.879c-196.546,-0 -355.879,-159.334 -355.879,-355.879c0,-196.546 159.333,-355.88 355.879,-355.88" style="fill:#0082ca;fill-rule:nonzero;"/><path d="M1337.67,1.562c196.546,0 355.875,159.333 355.875,355.879c0,196.546 -159.329,355.879 -355.875,355.879c-196.55,0 -355.879,-159.333 -355.879,-355.879c-0,-196.546 159.329,-355.879 355.879,-355.879" style="fill:#0082ca;fill-rule:nonzero;"/><path d="M1109.75,420.427l160.756,160.756l-657.343,657.344l-160.757,-160.756l657.344,-657.344Z" style="fill:#0082ca;"/></g></svg>